<svg width="138" height="162" fill="none" xmlns="http://www.w3.org/2000/svg"><path d="M55.21 150.594c-1.132.146-2.526.529-2.71 1.655-.224 1.297 1.342 2.105 2.605 2.449a176.111 176.111 0 0061.311 5.693c4.291-.358 20.767-4.118 14.595-11.69-3.211-3.932-14.7-1.02-19.122-.583-18.805 1.88-37.768.08-56.679 2.476z" fill="#9FDBF3" stroke="#1BBCED" stroke-width=".395" stroke-miterlimit="10"/><path opacity=".48" d="M74.068 141.697c-6.238.503-12.528 1.192-18.529 3.482-1.658.636-3.58 1.814-3.75 4.064-.145 1.894 1.078 3.509 2.342 4.475 3.184 2.436 7.014 2.767 10.699 3.045 18.147 1.337 36.795 2.86 54.705-2.237 5.369-1.536 12.989-9.559 4.711-14.775-4.211-2.661-12.752.927-17.344.901-10.962-.08-21.898.158-32.834 1.045z" fill="#4F4C4D" stroke="#4F4C4D" stroke-width=".263" stroke-miterlimit="10" stroke-linecap="round" stroke-linejoin="round"/><path d="M68.751 150.991c-6.737-.45-22.398.675-16.778-9.611 2.079-3.8.776-8.036 1.763-12.048 1.053-4.262 6.422-7.082 10.686-5.798" fill="#fff"/><path d="M68.751 150.991c-6.737-.45-22.398.675-16.778-9.611 2.079-3.8.776-8.036 1.763-12.048 1.053-4.262 6.422-7.082 10.686-5.798" stroke="#4F4C4D" stroke-width="1.579" stroke-miterlimit="10" stroke-linecap="round" stroke-linejoin="round"/><path d="M57.842 121.217c-.684.834-.513 2.171.224 2.952 1.263 1.351 3.671.98 5.277 1.933 1.553.927 2.79 2.449 3.263 4.21.869 3.204-.631 6.805-3.329 8.711-2.698 1.893-6.383 2.132-9.435.887-3.054-1.244-5.462-3.839-6.83-6.857-2.777-6.17-.79-13.994 3.934-18.654" fill="#fff"/><path d="M57.842 121.217c-.684.834-.513 2.171.224 2.952 1.263 1.351 3.671.98 5.277 1.933 1.553.927 2.79 2.449 3.263 4.21.869 3.204-.631 6.805-3.329 8.711-2.698 1.893-6.383 2.132-9.435.887-3.054-1.244-5.462-3.839-6.83-6.857-2.777-6.17-.79-13.994 3.934-18.654" stroke="#4F4C4D" stroke-width="1.579" stroke-miterlimit="10" stroke-linecap="round" stroke-linejoin="round"/><path d="M44.314 90.437c1.447-1.324.908-3.773-.21-5.401-2.067-2.979-3.435-5.23-2.33-9.042 1.895-6.5 10.646-5.256 13.87-.65" fill="#fff"/><path d="M44.314 90.437c1.447-1.324.908-3.773-.21-5.401-2.067-2.979-3.435-5.23-2.33-9.042 1.895-6.5 10.646-5.256 13.87-.65" stroke="#4F4C4D" stroke-width="1.579" stroke-miterlimit="10" stroke-linecap="round" stroke-linejoin="round"/><path d="M125.575 132.391c.237-3.416 4.041-5.309 7.08-4.382 2.303.701 4.027 2.899 4.304 5.308.276 2.397-.856 4.885-2.751 6.355-1.316 1.019-3.053 1.589-4.698 1.271-1.645-.318-3.119-1.602-3.434-3.244" fill="#fff"/><path d="M125.575 132.391c.237-3.416 4.041-5.309 7.08-4.382 2.303.701 4.027 2.899 4.304 5.308.276 2.397-.856 4.885-2.751 6.355-1.316 1.019-3.053 1.589-4.698 1.271-1.645-.318-3.119-1.602-3.434-3.244" stroke="#4F4C4D" stroke-width="1.184" stroke-miterlimit="10" stroke-linecap="round" stroke-linejoin="round"/><path d="M58.816 129.227c-7.054.529-13.344-5.283-15.805-11.968-3.764-10.247-2.632-24.439 2.158-34.156 7.975-16.191 22.74-28.252 41.546-21.83 8.33 2.845 15.699 8.525 20.002 16.31 2.317 4.183 1.461 6.208 1.461 10.537 0 5.534 3.251 7.613 7.225 10.724 9.514 7.413 17.055 17.673 15.7 30.475-.658 6.249-1.487 10.459-6.093 15.172-4.356 4.448-9.976 7.043-15.937 8.539-6.975 1.747-17.831 3.257-23.24-3.032" fill="#fff"/><path d="M58.816 129.227c-7.054.529-13.344-5.283-15.805-11.968-3.764-10.247-2.632-24.439 2.158-34.156 7.975-16.191 22.74-28.252 41.546-21.83 8.33 2.845 15.699 8.525 20.002 16.31 2.317 4.183 1.461 6.208 1.461 10.537 0 5.534 3.251 7.613 7.225 10.724 9.514 7.413 17.055 17.673 15.7 30.475-.658 6.249-1.487 10.459-6.093 15.172-4.356 4.448-9.976 7.043-15.937 8.539-6.975 1.747-17.831 3.257-23.24-3.032" stroke="#4F4C4D" stroke-width="1.579" stroke-miterlimit="10" stroke-linecap="round" stroke-linejoin="round"/><path d="M96.65 144.464c-.645 5.945-2.184 10.909-8.725 11.505-1.737.159-2.276.45-4.013.331-4.672-.305-10.028.304-14.437-1.562-7.33-3.111-1.079-12.749.237-17.581" fill="#fff"/><path d="M96.65 144.464c-.645 5.945-2.184 10.909-8.725 11.505-1.737.159-2.276.45-4.013.331-4.672-.305-10.028.304-14.437-1.562-7.33-3.111-1.079-12.749.237-17.581" stroke="#4F4C4D" stroke-width="1.579" stroke-miterlimit="10" stroke-linecap="round" stroke-linejoin="round"/><path d="M106.138 75.716c6.37 13.662 5.422 33.838-7.277 43.489l7.277-43.49z" fill="#fff"/><path d="M106.138 75.716c6.37 13.662 5.422 33.838-7.277 43.489" stroke="#4F4C4D" stroke-width="1.579" stroke-miterlimit="10" stroke-linecap="round" stroke-linejoin="round"/><path d="M54.184 117.828c-.224-5.693 4.75-9.664 10.343-7.612 3.606 1.324 6.028 5.361 5.488 9.187" stroke="#4F4C4D" stroke-width="1.184" stroke-miterlimit="10" stroke-linecap="round" stroke-linejoin="round"/><path d="M62.264 117.073c-.698.172-1.435.331-2.145.199s-1.395-.649-1.5-1.364c-.053-.384.065-.781.263-1.112.67-1.125 2.105-1.535 3.408-1.575.856-.04 1.764.066 2.474.543.71.489 1.158 1.456.816 2.25-.408.967-1.645 1.218-2.684 1.324-1.211.119-2.5.238-3.593-.304" fill="#4F4C4D"/><path d="M62.264 117.073c-.698.172-1.435.331-2.145.199s-1.395-.649-1.5-1.364c-.053-.384.065-.781.263-1.112.67-1.125 2.105-1.535 3.408-1.575.856-.04 1.764.066 2.474.543.71.489 1.158 1.456.816 2.25-.408.967-1.645 1.218-2.684 1.324-1.211.119-2.5.238-3.593-.304" stroke="#4F4C4D" stroke-width=".263" stroke-miterlimit="10" stroke-linecap="round" stroke-linejoin="round"/><path d="M62.474 124.355c.08-.133.21.198.04.198-.158.013-.25-.185-.29-.344a15.342 15.342 0 01-.105-6.699c-.645 2.304-.29 4.568.355 6.845z" stroke="#4F4C4D" stroke-width="1.579" stroke-miterlimit="10" stroke-linecap="round" stroke-linejoin="round"/><path d="M51.341 110.402c-1.132-.57-2.698.198-2.934 1.443-.237 1.244.908 2.555 2.17 2.475 1.264-.092 2.225-1.549 1.83-2.753-.395-1.205-2.026-1.787-3.092-1.126" fill="#4F4C4D"/><path d="M51.341 110.402c-1.132-.57-2.698.198-2.934 1.443-.237 1.244.908 2.555 2.17 2.475 1.264-.092 2.225-1.549 1.83-2.753-.395-1.205-2.026-1.787-3.092-1.126" stroke="#4F4C4D" stroke-width=".263" stroke-miterlimit="10" stroke-linecap="round" stroke-linejoin="round"/><path d="M74.884 110.798c-1.132-.569-2.698.199-2.934 1.443-.237 1.245.907 2.555 2.17 2.476 1.264-.093 2.225-1.549 1.83-2.754s-2.026-1.787-3.093-1.125" fill="#4F4C4D"/><path d="M74.884 110.798c-1.132-.569-2.698.199-2.934 1.443-.237 1.245.907 2.555 2.17 2.476 1.264-.093 2.225-1.549 1.83-2.754s-2.026-1.787-3.093-1.125" stroke="#4F4C4D" stroke-width=".263" stroke-miterlimit="10" stroke-linecap="round" stroke-linejoin="round"/><path d="M62.172 139.844c3.053-2.105 6.053-6.182 3.987-9.995-.855-1.576-2.5-2.833-4.408-3.045-1.909-.212-3.975.794-4.593 2.449" stroke="#4F4C4D" stroke-width="1.184" stroke-miterlimit="10" stroke-linecap="round" stroke-linejoin="round"/><path d="M97.124 71.029c9.962-11.425 17.674 9.466 7.396 10.326L97.124 71.03z" fill="#fff"/><path d="M97.124 71.029c9.962-11.425 17.674 9.466 7.396 10.326" stroke="#4F4C4D" stroke-width="1.579" stroke-miterlimit="10" stroke-linecap="round" stroke-linejoin="round"/><path d="M111.6 102.656c.118 4.343-1.29 8.712-3.896 12.167" stroke="#4F4C4D" stroke-width="1.184" stroke-miterlimit="10" stroke-linecap="round" stroke-linejoin="round"/><path d="M87.189 52.813l1.065 16.058c.29 4.369.474 7.003-3.75 9.347-3.698 2.052-7.738 3.587-11.95 4.037-3.816.424-9.738 0-13.106-2.091-3.58-2.211-2.474-7.189-2.553-10.71-.066-3.469-.435-6.911-1.435-10.207" fill="#fff"/><path d="M87.189 52.813l1.065 16.058c.29 4.369.474 7.003-3.75 9.347-3.698 2.052-7.738 3.587-11.95 4.037-3.816.424-9.738 0-13.106-2.091-3.58-2.211-2.474-7.189-2.553-10.71-.066-3.469-.435-6.911-1.435-10.207" stroke="#4F4C4D" stroke-width="1.579" stroke-miterlimit="10" stroke-linecap="round" stroke-linejoin="round"/><path d="M60.356 69.348c-4.093 2.33-9.265.317-10.633-4.157-1.172-3.813.434-9.03 3.434-11.61 2.75-2.384 6.014-2.543 7.738 1.058" fill="#fff"/><path d="M60.356 69.348c-4.093 2.33-9.265.317-10.633-4.157-1.172-3.813.434-9.03 3.434-11.61 2.75-2.384 6.014-2.543 7.738 1.058" stroke="#4F4C4D" stroke-width="1.579" stroke-miterlimit="10" stroke-linecap="round" stroke-linejoin="round"/><path d="M81.832 47.596c2.843-1.774 7.238-1.482 9.58 1.113 1.685 1.853 2.54 4.434 2.317 6.937-.46 5.15-5.25 8.631-10.291 7.268" fill="#fff"/><path d="M81.832 47.596c2.843-1.774 7.238-1.482 9.58 1.113 1.685 1.853 2.54 4.434 2.317 6.937-.46 5.15-5.25 8.631-10.291 7.268" stroke="#4F4C4D" stroke-width="1.579" stroke-miterlimit="10" stroke-linecap="round" stroke-linejoin="round"/><path d="M59.395 62.874c-7.04 1.43-9.87-7.374-8.186-12.828 3.343-10.83 20.95-11.876 28.215-4.938 2.014 1.92 3.172 4.54 4.29 7.096" fill="#fff"/><path d="M59.395 62.874c-7.04 1.43-9.87-7.374-8.186-12.828 3.343-10.83 20.95-11.876 28.215-4.938 2.014 1.92 3.172 4.54 4.29 7.096" stroke="#4F4C4D" stroke-width="1.579" stroke-miterlimit="10" stroke-linecap="round" stroke-linejoin="round"/><path d="M57.303 75c8.29 8.037 22.16 3.138 30.912-2.21L57.302 75z" fill="#fff"/><path d="M57.303 75c8.29 8.037 22.16 3.138 30.912-2.21" stroke="#4F4C4D" stroke-width="1.579" stroke-miterlimit="10" stroke-linecap="round" stroke-linejoin="round"/><path d="M81.582 118.384a.951.951 0 00.303-.304c.276-.451.566-.901.842-1.351l1.264 2.105a4.98 4.98 0 011.066-1.999 7.323 7.323 0 011.645 2.489M48.775 117.749a.714.714 0 01-.197-.199c-.185-.291-.356-.583-.54-.874-.276.45-.54.9-.816 1.364a3.353 3.353 0 00-.684-1.284 4.871 4.871 0 00-1.066 1.601" stroke="#4F4C4D" stroke-width=".395" stroke-miterlimit="10" stroke-linecap="round" stroke-linejoin="round"/><path d="M84.635 124.527c-4.342.212-9.396 2.489-11.238 6.579-1.75 3.866-.974 7.732 2.908 9.824 4.843 2.608 10.83 1.204 15.595-.848 6.843-2.952 12.08-8.512 12.475-16.389" fill="#fff"/><path d="M84.635 124.527c-4.342.212-9.396 2.489-11.238 6.579-1.75 3.866-.974 7.732 2.908 9.824 4.843 2.608 10.83 1.204 15.595-.848 6.843-2.952 12.08-8.512 12.475-16.389" stroke="#4F4C4D" stroke-width="1.579" stroke-miterlimit="10" stroke-linecap="round" stroke-linejoin="round"/><path d="M74.081 115.472c0 2.594-.013 5.189-.013 7.784 0 1.019.184 2.303 1.158 2.581.75.212 1.526-.423 1.763-1.165.237-.741.08-1.549-.105-2.316a34.19 34.19 0 00-2.632-7.202M50.263 114.505c-.395 1.893-.803 3.786-1.197 5.68-.237 1.112-.461 2.29-.066 3.349.395 1.059 1.684 1.867 2.671 1.337a15.882 15.882 0 00-.868-9.717M77.384 133.437c.645.794 1.053 3.68 1.237 4.54.369 1.668.553 3.376.711 5.071.158 1.8-.316 4.276-2.21 4.316-1.725.026-2.449-2.105-2.501-3.747a30.454 30.454 0 01.553-6.911c.25-1.284.578-4.62 2.092-3.375.04.026.079.066.118.106zM50.815 133.437c.645.794 1.053 3.68 1.237 4.54.368 1.668.553 3.376.71 5.071.158 1.8-.315 4.276-2.21 4.316-1.724.026-2.448-2.105-2.5-3.747a30.454 30.454 0 01.552-6.911c.25-1.284.579-4.62 2.092-3.375a.306.306 0 01.119.106z" fill="#05BDE8"/><path d="M66.251 62.675c1.487-1.125 3.882-1.76 5.606-.966 2.12.966 3.422 3.442 2.803 5.746-.618 2.303-2.934 3.958-5.303 3.998-.869.013-1.75-.172-2.46-.662-.409-.291-.777-.728-1.264-.874-.553-.172-1.145.199-1.658.053-.935-.278-.698-1.033-.369-1.8.342-.835.645-1.669.882-2.516s.566-1.668 1.132-2.356a3.14 3.14 0 01.631-.623z" fill="#FF672B"/><path d="M68.238 68.58h-.013c-.224-.013-.368-.172-.434-.225-.882-.914-1.066-2.185-1.198-3.535a.406.406 0 01.369-.45.406.406 0 01.447.384c.106 1.085.237 2.131.803 2.846a7.234 7.234 0 00.684-2.449.43.43 0 01.435-.384.4.4 0 01.394.41 8.53 8.53 0 00.25 1.92c.053.186.119.305.158.344.027-.013.066-.053.145-.159a6.034 6.034 0 001.053-2.647.414.414 0 01.46-.358.416.416 0 01.356.464 6.633 6.633 0 01-1.198 3.018c-.092.132-.342.49-.763.516-.447.04-.816-.29-.987-.873-.105.251-.21.516-.342.754-.184.384-.46.437-.619.424z" fill="#fff"/><path d="M22.6 43.77v3.178M22.6 53.302c.237.953.316 1.933.263 2.913M22.863 60.186v3.178M23.127 67.335c.105 1.324.197 2.648.302 3.972M29.97 44.287v3.177M29.97 53.819a9.86 9.86 0 01.263 2.912M30.233 60.703v3.177M30.496 67.852c.105 1.323.198 2.647.303 3.971" stroke="#9FDBF3" stroke-width="1.316" stroke-miterlimit="10" stroke-linecap="round"/><g opacity=".63" stroke="#9FDBF3" stroke-width="1.316" stroke-miterlimit="10" stroke-linecap="round"><path opacity=".63" d="M53.776 46.418v3.178M53.776 55.95c.236.953.316 1.933.263 2.913M54.039 62.834v3.177M54.289 69.983c.105 1.324.197 2.648.303 3.972"/></g><path d="M40.971 46.418v3.178M40.971 55.95a9.86 9.86 0 01.263 2.913M41.234 62.834v3.177M41.498 69.983c.105 1.324.197 2.648.302 3.972" stroke="#9FDBF3" stroke-width="1.316" stroke-miterlimit="10" stroke-linecap="round"/><path d="M51.433 8.423c5.725-.993 11.91-.132 16.713 3.177 8.107 5.587 9.238 19.54-.013 24.757-2.171 1.218-4.724 1.509-7.212 1.628-3.316.159-6.987-.04-9.422-2.317" fill="#9FDBF3"/><path d="M51.433 8.423c5.725-.993 11.91-.132 16.713 3.177 8.107 5.587 9.238 19.54-.013 24.757-2.171 1.218-4.724 1.509-7.212 1.628-3.316.159-6.987-.04-9.422-2.317" stroke="#1BBCED" stroke-width=".395" stroke-miterlimit="10"/><path d="M18.455 23.608c-1.987-3.257-1.013-7.771 1.605-10.538 2.62-2.767 6.514-3.998 10.318-4.17 6.382-.278 12.554 2.131 18.49 4.487 2.486.993 5.013 2 7.04 3.747 3.869 3.31 5.33 9.042 3.96 13.967-1.368 4.925-5.329 8.923-10.053 10.816-4.725 1.88-10.12 1.747-14.937.12-9.567-3.231-16.765-12.578-17.502-22.705" fill="#9FDBF3"/><path d="M28.009 37.297c-.25.45.026.993.329 1.416 2.276 3.244 5.974 5.309 9.843 6.09 3.87.781 7.896.358 11.713-.675 4.724-1.271 9.58-3.906 11.278-8.513" fill="#9FDBF3"/><path d="M28.009 37.297c-.25.45.026.993.329 1.416 2.276 3.244 5.974 5.309 9.843 6.09 3.87.781 7.896.358 11.713-.675 4.724-1.271 9.58-3.906 11.278-8.513" stroke="#1BBCED" stroke-width=".395" stroke-miterlimit="10"/><path d="M17.428 11.07c.658-3.256 3.527-5.586 6.462-7.122C30.535.493 38.826-.169 45.485 3.273c6.659 3.442 11.093 11.306 9.593 18.68" fill="#9FDBF3"/><path d="M17.428 11.07c.658-3.256 3.527-5.586 6.462-7.122C30.535.493 38.826-.169 45.485 3.273c6.659 3.442 11.093 11.306 9.593 18.68" stroke="#1BBCED" stroke-width=".395" stroke-miterlimit="10"/><path d="M39.194 30.77c-2.04 5.269-8.053 7.824-13.62 8.565a38.924 38.924 0 01-13.95-.662C2.993 36.661-1.6 28.652 2.545 20.338c1.83-3.68 4.685-6.937 8.396-8.658 3.712-1.735 8.304-1.748 11.739.476" fill="#9FDBF3"/><path d="M39.194 30.77c-2.04 5.269-8.053 7.824-13.62 8.565a38.924 38.924 0 01-13.95-.662C2.993 36.661-1.6 28.652 2.545 20.338c1.83-3.68 4.685-6.937 8.396-8.658 3.712-1.735 8.304-1.748 11.739.476" stroke="#1BBCED" stroke-width=".395" stroke-miterlimit="10"/><path opacity=".66" d="M6.69 29.989c2.566-2.979 7.738-5.375 10.975-5.19 3.646.199 7.264.781 10.791 1.735 7.817 2.118 16.634 3.985 24.425.595 2.46-1.072 4.711-2.687 7.317-3.283 7.027-1.602 17.463 6.077 8.961 12.087-1.25.887-3.092 1.536-4.619 1.734-1.553.199-3.105-.211-4.54.715-.513.331-.934.795-1.368 1.232-3.87 3.839-10.528 5.983-15.897 5.93-3.159-.04-6.396-.926-9.225-2.316-.882-.437-1.882-.9-2.659-1.51-.96-.741-1.513-2.012-2.763-2.356-1.198-.331-2.974.318-4.159.516-1.368.225-2.869-.026-4.25-.013-3.856.04-7.672-.543-11.147-2.277-4.303-2.171-4-5.097-1.842-7.6z" fill="#4F8B9E"/></svg>